<svg width="22px" height="19px" viewBox="0 0 22 19" version="1.1" xmlns="http://www.w3.org/2000/svg" xmlns:xlink="http://www.w3.org/1999/xlink">
    <!-- Generator: Sketch 50.2 (55047) - http://www.bohemiancoding.com/sketch -->
    <desc>Created with Sketch.</desc>
    <defs></defs>
    <g id="Page-1" stroke="none" stroke-width="1" fill="none" fill-rule="evenodd">
        <g id="Виджет-Залогинен-Copy" transform="translate(-866.000000, -1138.000000)" fill="#FF683A">
            <g id="Group-2" transform="translate(863.000000, 1047.000000)">
                <g id="Group-3">
                    <path d="M3,109 L3,101 C3,99.7106443 3.81339224,98.6112665 4.95503881,98.1870046 L5.87433924,92.671202 C6.03506856,91.7068261 6.86944878,91 7.84712709,91 L20.1528729,91 C21.1305512,91 21.9649314,91.7068261 22.1256608,92.671202 L23.0449612,98.1870046 C24.1866078,98.6112665 25,99.7106443 25,101 L25,109 C25,109.552285 24.5522847,110 24,110 L22,110 C21.4477153,110 21,109.552285 21,109 L21,107 L7,107 L7,109 C7,109.552285 6.55228475,110 6,110 L4,110 C3.44771525,110 3,109.552285 3,109 Z M7.01379376,98 L7.84712709,93 L20.1528729,93 L20.9862062,98 L7.01379376,98 Z M6,100 L8,100 C8.55228475,100 9,100.447715 9,101 C9,101.552285 8.55228475,102 8,102 L6,102 C5.44771525,102 5,101.552285 5,101 C5,100.447715 5.44771525,100 6,100 Z M20,100 L22,100 C22.5522847,100 23,100.447715 23,101 C23,101.552285 22.5522847,102 22,102 L20,102 C19.4477153,102 19,101.552285 19,101 C19,100.447715 19.4477153,100 20,100 Z" id="Combined-Shape"></path>
                </g>
            </g>
        </g>
    </g>
</svg>