<svg width="21px" height="21px" viewBox="0 0 21 21" version="1.1" xmlns="http://www.w3.org/2000/svg" xmlns:xlink="http://www.w3.org/1999/xlink">
    <!-- Generator: Sketch 50.2 (55047) - http://www.bohemiancoding.com/sketch -->
    <desc>Created with Sketch.</desc>
    <defs></defs>
    <g id="Page-1" stroke="none" stroke-width="1" fill="none" fill-rule="evenodd">
        <g id="Виджет-Залогинен-Copy" transform="translate(-867.000000, -1207.000000)" fill="#A169F7" fill-rule="nonzero">
            <g id="Group-2" transform="translate(863.000000, 1047.000000)">
                <g id="Group-3">
                    <path d="M22.2928932,170.792893 L22.2928932,180.292893 C22.2928932,180.569036 22.0690356,180.792893 21.7928932,180.792893 L17.2928932,180.792893 L17.2928932,174.292893 C17.2928932,174.016751 17.0690356,173.792893 16.7928932,173.792893 L11.7928932,173.792893 C11.5167508,173.792893 11.2928932,174.016751 11.2928932,174.292893 L11.2928932,180.792893 L6.79289322,180.792893 C6.51675084,180.792893 6.29289322,180.569036 6.29289322,180.292893 L6.29289322,170.792893 L4.5,170.792893 C4.36739176,170.792893 4.2402148,170.740215 4.14644661,170.646447 C3.95118446,170.451184 3.95118446,170.134602 4.14644661,169.93934 L13.9393398,160.146447 C14.134602,159.951184 14.4511845,159.951184 14.6464466,160.146447 L24.4393398,169.93934 C24.533108,170.033108 24.5857864,170.160285 24.5857864,170.292893 C24.5857864,170.569036 24.3619288,170.792893 24.0857864,170.792893 L22.2928932,170.792893 Z M18.7928932,160.792893 L21.7928932,160.792893 C22.0690356,160.792893 22.2928932,161.016751 22.2928932,161.292893 L22.2928932,165.792893 L18.2928932,161.792893 L18.2928932,161.292893 C18.2928932,161.016751 18.5167508,160.792893 18.7928932,160.792893 Z" id="Combined-Shape-Copy"></path>
                </g>
            </g>
        </g>
    </g>
</svg>