<svg width="27px" height="19px" viewBox="0 0 27 19" version="1.1" xmlns="http://www.w3.org/2000/svg" xmlns:xlink="http://www.w3.org/1999/xlink">
    <!-- Generator: Sketch 50.2 (55047) - http://www.bohemiancoding.com/sketch -->
    <desc>Created with Sketch.</desc>
    <defs></defs>
    <g id="Page-1" stroke="none" stroke-width="1" fill="none" fill-rule="evenodd">
        <g id="Виджет-Залогинен-Copy" transform="translate(-863.000000, -1087.000000)" fill="#FFB020">
            <g id="Group-2" transform="translate(863.000000, 1047.000000)">
                <g id="Group-3">
                    <path d="M24,56 C24,57.6568542 22.6568542,59 21,59 C19.3431458,59 18,57.6568542 18,56 L17,56 L15,56 L9,56 C9,57.6568542 7.65685425,59 6,59 C4.34314575,59 3,57.6568542 3,56 L1.125,56 C0.503679656,56 7.6089797e-17,55.4963203 0,54.875 L0,41.125 C-7.6089797e-17,40.5036797 0.503679656,40 1.125,40 L13.875,40 C14.4963203,40 15,40.5036797 15,41.125 L15,51 L17,51 L17,45.125 C17,44.5036797 17.5036797,44 18.125,44 L20.9529137,44 C21.2662977,44 21.5654788,44.1307171 21.7783944,44.360666 L26.7004808,49.6765192 C26.893032,49.8844746 27,50.1574429 27,50.4408533 L27,54.875 C27,55.4963203 26.4963203,56 25.875,56 L24,56 Z M19,46.5 L19,49.5 C19,49.7761424 19.2238576,50 19.5,50 L23.7928932,50 C24.0690356,50 24.2928932,49.7761424 24.2928932,49.5 C24.2928932,49.3673918 24.2402148,49.2402148 24.1464466,49.1464466 L21.1464466,46.1464466 C21.0526784,46.0526784 20.9255015,46 20.7928932,46 L19.5,46 C19.2238576,46 19,46.2238576 19,46.5 Z M21,57 C21.5522847,57 22,56.5522847 22,56 C22,55.4477153 21.5522847,55 21,55 C20.4477153,55 20,55.4477153 20,56 C20,56.5522847 20.4477153,57 21,57 Z M6,57 C6.55228475,57 7,56.5522847 7,56 C7,55.4477153 6.55228475,55 6,55 C5.44771525,55 5,55.4477153 5,56 C5,56.5522847 5.44771525,57 6,57 Z" id="Combined-Shape"></path>
                </g>
            </g>
        </g>
    </g>
</svg>